<svg width="34" height="22" viewBox="0 0 34 22" fill="none" xmlns="http://www.w3.org/2000/svg">
<g clip-path="url(#clip0_120_18)">
<path d="M0 20.5C0 20.1022 0.158035 19.7206 0.43934 19.4393C0.720644 19.158 1.10218 19 1.5 19H32.5C32.8978 19 33.2794 19.158 33.5607 19.4393C33.842 19.7206 34 20.1022 34 20.5C34 20.8978 33.842 21.2794 33.5607 21.5607C33.2794 21.842 32.8978 22 32.5 22H1.5C1.10218 22 0.720644 21.842 0.43934 21.5607C0.158035 21.2794 0 20.8978 0 20.5ZM0 11.5C0 11.1022 0.158035 10.7206 0.43934 10.4393C0.720644 10.158 1.10218 10 1.5 10H32.5C32.8978 10 33.2794 10.158 33.5607 10.4393C33.842 10.7206 34 11.1022 34 11.5C34 11.8978 33.842 12.2794 33.5607 12.5607C33.2794 12.842 32.8978 13 32.5 13H1.5C1.10218 13 0.720644 12.842 0.43934 12.5607C0.158035 12.2794 0 11.8978 0 11.5ZM0 1.5C0 1.10218 0.158035 0.720644 0.43934 0.43934C0.720644 0.158035 1.10218 0 1.5 0L32.5 0C32.8978 0 33.2794 0.158035 33.5607 0.43934C33.842 0.720644 34 1.10218 34 1.5C34 1.89782 33.842 2.27936 33.5607 2.56066C33.2794 2.84196 32.8978 3 32.5 3H1.5C1.10218 3 0.720644 2.84196 0.43934 2.56066C0.158035 2.27936 0 1.89782 0 1.5Z" fill="#026AB6"/>
</g>
<defs>
<clipPath id="clip0_120_18">
<rect width="34" height="22" fill="white"/>
</clipPath>
</defs>
</svg>
