<svg width="38" height="38" viewBox="0 0 38 38" fill="none" xmlns="http://www.w3.org/2000/svg">
<g clip-path="url(#clip0_75_1688)">
<mask id="mask0_75_1688" style="mask-type:luminance" maskUnits="userSpaceOnUse" x="0" y="0" width="38" height="38">
<path d="M38 0H0V38H38V0Z" fill="white"/>
</mask>
<g mask="url(#mask0_75_1688)">
<path d="M13.9331 24.4587L15.8633 13.6016H18.8792L17.0093 24.4587H13.9331Z" fill="#3C58BF"/>
<path d="M13.9331 24.4587L16.4062 13.6016H18.8792L17.0093 24.4587H13.9331Z" fill="#293688"/>
<path d="M27.9267 13.7218C27.3236 13.4805 26.3585 13.2393 25.1521 13.2393C22.1363 13.2393 19.9648 14.7472 19.9648 16.9186C19.9648 18.5472 21.4728 19.3916 22.6791 19.9345C23.8855 20.4774 24.2474 20.8393 24.2474 21.3218C24.2474 22.0456 23.2823 22.4075 22.4378 22.4075C21.2315 22.4075 20.568 22.2266 19.5426 21.8043L19.1204 21.6234L18.6982 24.0964C19.422 24.398 20.749 24.6996 22.1363 24.6996C25.3331 24.6996 27.4442 23.1916 27.4442 20.8996C27.4442 19.6329 26.6601 18.6678 24.8505 17.8837C23.7648 17.3408 23.1013 17.0393 23.1013 16.4964C23.1013 16.0139 23.6442 15.5313 24.8505 15.5313C25.8759 15.5313 26.5998 15.7123 27.1426 15.9535L27.4442 16.0742L27.9267 13.7218Z" fill="#3C58BF"/>
<path d="M27.9267 13.7218C27.3236 13.4805 26.3585 13.2393 25.1521 13.2393C22.1363 13.2393 20.5077 14.7472 20.5077 16.9186C20.5077 18.5472 21.4728 19.3916 22.6791 19.9345C23.8855 20.4774 24.2474 20.8393 24.2474 21.3218C24.2474 22.0456 23.2823 22.4075 22.4378 22.4075C21.2315 22.4075 20.568 22.2266 19.5426 21.8043L19.1204 21.6234L18.6982 24.0964C19.422 24.398 20.749 24.6996 22.1363 24.6996C25.3331 24.6996 27.4442 23.1916 27.4442 20.8996C27.4442 19.6329 26.6601 18.6678 24.8505 17.8837C23.7648 17.3408 23.1013 17.0393 23.1013 16.4964C23.1013 16.0139 23.6442 15.5313 24.8505 15.5313C25.8759 15.5313 26.5998 15.7123 27.1426 15.9535L27.4442 16.0742L27.9267 13.7218Z" fill="#293688"/>
<path d="M33.1146 13.6016C32.3908 13.6016 31.8479 13.6619 31.5463 14.3857L27.0225 24.4587H30.2797L30.8829 22.6492H34.7432L35.1051 24.4587H38.0003L35.467 13.6016H33.1146ZM31.7273 20.8397C31.9083 20.2968 32.9336 17.6428 32.9336 17.6428C32.9336 17.6428 33.1749 16.9793 33.3559 16.5571L33.5368 17.5825C33.5368 17.5825 34.14 20.2968 34.2606 20.9H31.7273V20.8397Z" fill="#3C58BF"/>
<path d="M33.8384 13.6016C33.1146 13.6016 32.5717 13.6619 32.2702 14.3857L27.0225 24.4587H30.2797L30.8829 22.6492H34.7432L35.1051 24.4587H38.0003L35.467 13.6016H33.8384ZM31.7273 20.8397C31.9686 20.2365 32.9336 17.6428 32.9336 17.6428C32.9336 17.6428 33.1749 16.9793 33.3559 16.5571L33.5368 17.5825C33.5368 17.5825 34.14 20.2968 34.2606 20.9H31.7273V20.8397Z" fill="#293688"/>
<path d="M8.38416 21.2018L8.08257 19.6335C7.53972 17.824 5.79051 15.8335 3.86035 14.8685L6.57464 24.5193H9.83178L14.7175 13.6621H11.4604L8.38416 21.2018Z" fill="#3C58BF"/>
<path d="M8.38416 21.2018L8.08257 19.6335C7.53972 17.824 5.79051 15.8335 3.86035 14.8685L6.57464 24.5193H9.83178L14.7175 13.6621H12.0635L8.38416 21.2018Z" fill="#293688"/>
<path d="M0 13.6016L0.542857 13.7222C4.40317 14.627 7.05714 16.919 8.08254 19.6333L6.99683 14.5063C6.81587 13.7825 6.27302 13.6016 5.60952 13.6016H0Z" fill="#FFBC00"/>
<path d="M0 13.6016C3.86032 14.5063 7.05714 16.8587 8.08254 19.573L7.05714 15.2905C6.87619 14.5666 6.27302 14.1444 5.60952 14.1444L0 13.6016Z" fill="#F7981D"/>
<path d="M0 13.6016C3.86032 14.5063 7.05714 16.8587 8.08254 19.573L7.35873 17.2206C7.17778 16.4968 6.93651 15.773 6.09206 15.4714L0 13.6016Z" fill="#ED7C00"/>
<path d="M11.3998 20.8394L9.34899 18.7886L8.38391 21.0806L8.14264 19.5727C7.59978 17.7632 5.85057 15.7727 3.92041 14.8076L6.6347 24.4584H9.89184L11.3998 20.8394Z" fill="#051244"/>
<path d="M17.0093 24.4587L14.4157 21.8047L13.9331 24.4587H17.0093Z" fill="#051244"/>
<path d="M23.9458 20.7188C24.1871 20.96 24.3077 21.141 24.2474 21.3822C24.2474 22.1061 23.2823 22.468 22.4378 22.468C21.2315 22.468 20.568 22.2869 19.5426 21.8647L19.1204 21.6838L18.6982 24.1567C19.422 24.4583 20.749 24.76 22.1363 24.76C24.0664 24.76 25.6347 24.2172 26.5394 23.2521L23.9458 20.7188Z" fill="#051244"/>
<path d="M27.4443 24.4582H30.2792L30.8824 22.6487H34.7427L35.1046 24.4582H37.9998L36.9744 20.0551L33.3554 16.5566L33.5363 17.5217C33.5363 17.5217 34.1395 20.236 34.2601 20.8392H31.7268C31.9681 20.236 32.9331 17.6424 32.9331 17.6424C32.9331 17.6424 33.1744 16.9789 33.3554 16.5566" fill="#051244"/>
</g>
</g>
<defs>
<clipPath id="clip0_75_1688">
<rect width="38" height="38" fill="white"/>
</clipPath>
</defs>
</svg>
