<svg width="39" height="38" viewBox="0 0 39 38" fill="none" xmlns="http://www.w3.org/2000/svg">
<g clip-path="url(#clip0_75_1708)">
<mask id="mask0_75_1708" style="mask-type:luminance" maskUnits="userSpaceOnUse" x="0" y="0" width="39" height="38">
<path d="M39 0H0V38H39V0Z" fill="white"/>
</mask>
<g mask="url(#mask0_75_1708)">
<path d="M39.0001 18.9996C39.0001 25.2726 33.8001 30.3996 27.3001 30.3996C20.862 30.3996 15.6001 25.2726 15.6001 18.9996C15.6001 12.7266 20.8001 7.59961 27.2382 7.59961C33.8001 7.59961 39.0001 12.7266 39.0001 18.9996Z" fill="#FFB600"/>
<path d="M27.3001 7.59961C33.7382 7.59961 39.0001 12.7266 39.0001 18.9996C39.0001 25.2726 33.8001 30.3996 27.3001 30.3996C20.862 30.3996 15.6001 25.2726 15.6001 18.9996" fill="#F7981D"/>
<path d="M27.2998 7.59961C33.7379 7.59961 38.9999 12.7266 38.9999 18.9996C38.9999 25.2726 33.7998 30.3996 27.2998 30.3996" fill="#FF8500"/>
<path d="M11.5762 7.59961C5.2 7.65993 0 12.7266 0 18.9996C0 25.2726 5.2 30.3996 11.7 30.3996C14.7333 30.3996 17.4571 29.2536 19.5619 27.4441C19.9952 27.0821 20.3667 26.6599 20.7381 26.2377H18.3238C18.0143 25.8758 17.7048 25.4536 17.4571 25.0917H21.6048C21.8524 24.7298 22.1 24.3075 22.2857 23.8853H16.7762C16.5905 23.5234 16.4048 23.1012 16.281 22.679H22.719C23.0905 21.5329 23.3381 20.3266 23.3381 19.0599C23.3381 18.2155 23.2143 17.4314 23.0905 16.6472H15.9095C15.9714 16.225 16.0952 15.8631 16.219 15.4409H22.6571C22.5333 15.0187 22.3476 14.5964 22.1619 14.2345H16.7143C16.9 13.8123 17.1476 13.4504 17.3952 13.0282H21.5429C21.2952 12.606 20.9857 12.1837 20.6143 11.8218H18.3238C18.6952 11.3996 19.0667 11.0377 19.5 10.6758C17.4571 8.80596 14.6714 7.72024 11.6381 7.72024C11.6381 7.59961 11.6381 7.59961 11.5762 7.59961Z" fill="#FF5050"/>
<path d="M0 19.0001C0 25.2731 5.2 30.4001 11.7 30.4001C14.7333 30.4001 17.4571 29.254 19.5619 27.4445C19.9952 27.0826 20.3667 26.6604 20.7381 26.2382H18.3238C18.0143 25.8763 17.7048 25.454 17.4571 25.0921H21.6048C21.8524 24.7302 22.1 24.308 22.2857 23.8858H16.7762C16.5905 23.5239 16.4048 23.1017 16.281 22.6794H22.719C23.0905 21.5334 23.3381 20.3271 23.3381 19.0604C23.3381 18.2159 23.2143 17.4318 23.0905 16.6477H15.9095C15.9714 16.2255 16.0952 15.8636 16.219 15.4413H22.6571C22.5333 15.0191 22.3476 14.5969 22.1619 14.235H16.7143C16.9 13.8128 17.1476 13.4509 17.3952 13.0286H21.5429C21.2952 12.6064 20.9857 12.1842 20.6143 11.8223H18.3238C18.6952 11.4001 19.0667 11.0382 19.5 10.6763C17.4571 8.80642 14.6714 7.7207 11.6381 7.7207H11.5762" fill="#E52836"/>
<path d="M11.7 30.4001C14.7333 30.4001 17.4571 29.254 19.5619 27.4445C19.9952 27.0826 20.3666 26.6604 20.7381 26.2382H18.3238C18.0143 25.8763 17.7047 25.454 17.4571 25.0921H21.6047C21.8524 24.7302 22.1 24.308 22.2857 23.8858H16.7762C16.5905 23.5239 16.4047 23.1017 16.2809 22.6794H22.719C23.0905 21.5334 23.3381 20.3271 23.3381 19.0604C23.3381 18.2159 23.2143 17.4318 23.0905 16.6477H15.9095C15.9714 16.2255 16.0952 15.8636 16.219 15.4413H22.6571C22.5333 15.0191 22.3476 14.5969 22.1619 14.235H16.7143C16.9 13.8128 17.1476 13.4509 17.3952 13.0286H21.5428C21.2952 12.6064 20.9857 12.1842 20.6143 11.8223H18.3238C18.6952 11.4001 19.0666 11.0382 19.5 10.6763C17.4571 8.80642 14.6714 7.7207 11.6381 7.7207H11.5762" fill="#CB2026"/>
<path d="M15.8474 21.8948L16.0331 20.8695C15.9712 20.8695 15.8474 20.9298 15.7236 20.9298C15.2903 20.9298 15.2284 20.6885 15.2903 20.5679L15.6617 18.4568H16.3426L16.5284 17.3107H15.9093L16.0331 16.5869H14.795C14.795 16.5869 14.0522 20.5679 14.0522 21.0504C14.0522 21.7742 14.4855 22.0758 15.0426 22.0758C15.4141 22.0758 15.7236 21.9552 15.8474 21.8948Z" fill="white"/>
<path d="M16.2808 19.9641C16.2808 21.653 17.457 22.0752 18.4474 22.0752C19.376 22.0752 19.7474 21.8943 19.7474 21.8943L19.9951 20.7482C19.9951 20.7482 19.3141 21.0498 18.6951 21.0498C17.3332 21.0498 17.5808 20.0847 17.5808 20.0847H20.1189C20.1189 20.0847 20.3046 19.3006 20.3046 18.999C20.3046 18.2149 19.8713 17.2498 18.5094 17.2498C17.2094 17.1292 16.2808 18.4562 16.2808 19.9641ZM18.4474 18.2149C19.1284 18.2149 19.0046 18.999 19.0046 19.0593H17.6427C17.6427 18.999 17.7665 18.2149 18.4474 18.2149Z" fill="white"/>
<path d="M26.3095 21.8947L26.5571 20.5678C26.5571 20.5678 25.9381 20.8693 25.5048 20.8693C24.6381 20.8693 24.2667 20.2059 24.2667 19.482C24.2667 18.0344 25.0095 17.2503 25.8762 17.2503C26.4952 17.2503 26.9905 17.6122 26.9905 17.6122L27.1762 16.3455C27.1762 16.3455 26.4333 16.0439 25.7524 16.0439C24.3286 16.0439 22.9048 17.2503 22.9048 19.5424C22.9048 21.0503 23.6476 22.0757 25.1333 22.0757C25.6286 22.0757 26.3095 21.8947 26.3095 21.8947Z" fill="white"/>
<path d="M9.03793 17.1299C8.17127 17.1299 7.55222 17.3712 7.55222 17.3712L7.3665 18.3966C7.3665 18.3966 7.92365 18.1553 8.72841 18.1553C9.16174 18.1553 9.53317 18.2156 9.53317 18.5775C9.53317 18.8188 9.47127 18.8791 9.47127 18.8791C9.47127 18.8791 9.09984 18.8791 8.91412 18.8791C7.86174 18.8791 6.68555 19.3013 6.68555 20.6886C6.68555 21.7743 7.42841 22.0156 7.86174 22.0156C8.72841 22.0156 9.09984 21.4727 9.16174 21.4727L9.09984 21.9553H10.2142L10.7094 18.6378C10.7094 17.1902 9.47127 17.1299 9.03793 17.1299ZM9.28555 19.8442C9.28555 20.0251 9.16174 20.9902 8.41888 20.9902C8.04746 20.9902 7.92365 20.6886 7.92365 20.5077C7.92365 20.2061 8.10936 19.7839 9.03793 19.7839C9.22365 19.8442 9.28555 19.8442 9.28555 19.8442Z" fill="white"/>
<path d="M11.8857 22.0154C12.1952 22.0154 13.7428 22.0757 13.7428 20.4471C13.7428 18.9392 12.2571 19.2408 12.2571 18.6376C12.2571 18.336 12.5047 18.2154 12.9381 18.2154C13.1238 18.2154 13.8047 18.2757 13.8047 18.2757L13.9905 17.19C13.9905 17.19 13.5571 17.0693 12.8143 17.0693C11.8857 17.0693 10.9571 17.4312 10.9571 18.6376C10.9571 20.0249 12.5047 19.9043 12.5047 20.4471C12.5047 20.809 12.0714 20.8693 11.7619 20.8693C11.2047 20.8693 10.6476 20.6884 10.6476 20.6884L10.4619 21.7741C10.5238 21.8947 10.8333 22.0154 11.8857 22.0154Z" fill="white"/>
<path d="M36.5857 16.1641L36.3381 17.7926C36.3381 17.7926 35.8428 17.1895 35.1619 17.1895C34.0476 17.1895 33.0571 18.5164 33.0571 20.0847C33.0571 21.0498 33.5524 22.0752 34.6047 22.0752C35.3476 22.0752 35.7809 21.5926 35.7809 21.5926L35.719 22.0149H36.9571L37.8857 16.2244L36.5857 16.1641ZM36.0286 19.3609C36.0286 20.0244 35.719 20.8688 35.0381 20.8688C34.6047 20.8688 34.3571 20.5069 34.3571 19.9037C34.3571 18.9387 34.7905 18.3355 35.3476 18.3355C35.7809 18.3355 36.0286 18.6371 36.0286 19.3609Z" fill="white"/>
<path d="M2.29045 21.9545L3.03331 17.6117L3.15711 21.9545H4.02378L5.63331 17.6117L4.95235 21.9545H6.25235L7.24283 16.1641H5.19997L3.96188 19.7228L3.89997 16.1641H2.10473L1.11426 21.9545H2.29045Z" fill="white"/>
<path d="M21.481 21.9548C21.8525 19.9643 21.9144 18.3357 22.781 18.6373C22.9048 17.8532 23.0905 17.5516 23.2144 17.25C23.2144 17.25 23.1525 17.25 22.9667 17.25C22.4096 17.25 21.9763 17.9738 21.9763 17.9738L22.1001 17.3103H20.9239L20.1191 22.0151H21.481V21.9548Z" fill="white"/>
<path d="M29.1571 17.1299C28.2904 17.1299 27.6714 17.3712 27.6714 17.3712L27.4856 18.3966C27.4856 18.3966 28.0428 18.1553 28.8475 18.1553C29.2809 18.1553 29.6523 18.2156 29.6523 18.5775C29.6523 18.8188 29.5904 18.8791 29.5904 18.8791C29.5904 18.8791 29.219 18.8791 29.0333 18.8791C27.9809 18.8791 26.8047 19.3013 26.8047 20.6886C26.8047 21.7743 27.5475 22.0156 27.9809 22.0156C28.8475 22.0156 29.219 21.4727 29.2809 21.4727L29.219 21.9553H30.3333L30.8285 18.6378C30.8904 17.1902 29.5904 17.1299 29.1571 17.1299ZM29.4666 19.8442C29.4666 20.0251 29.3428 20.9902 28.5999 20.9902C28.2285 20.9902 28.1047 20.6886 28.1047 20.5077C28.1047 20.2061 28.2904 19.7839 29.219 19.7839C29.4047 19.8442 29.4047 19.8442 29.4666 19.8442Z" fill="white"/>
<path d="M31.8809 21.9548C32.2524 19.9643 32.3143 18.3357 33.1809 18.6373C33.3048 17.8532 33.4905 17.5516 33.6143 17.25C33.6143 17.25 33.5524 17.25 33.3667 17.25C32.8095 17.25 32.3762 17.9738 32.3762 17.9738L32.5 17.3103H31.3238L30.519 22.0151H31.8809V21.9548Z" fill="white"/>
<path d="M13.9287 21.0504C13.9287 21.7742 14.362 22.0758 14.9191 22.0758C15.3525 22.0758 15.7239 21.9552 15.8477 21.8948L16.0334 20.8695C15.9715 20.8695 15.8477 20.9298 15.7239 20.9298C15.2906 20.9298 15.2287 20.6885 15.2906 20.5679L15.662 18.4568H16.3429L16.5287 17.3107H15.9096L16.0334 16.5869" fill="#DCE5E5"/>
<path d="M16.8999 19.9641C16.8999 21.653 17.457 22.0752 18.4475 22.0752C19.3761 22.0752 19.7475 21.8943 19.7475 21.8943L19.9951 20.7482C19.9951 20.7482 19.3142 21.0498 18.6951 21.0498C17.3332 21.0498 17.5809 20.0847 17.5809 20.0847H20.1189C20.1189 20.0847 20.3047 19.3006 20.3047 18.999C20.3047 18.2149 19.8713 17.2498 18.5094 17.2498C17.2094 17.1292 16.8999 18.4562 16.8999 19.9641ZM18.4475 18.2149C19.1285 18.2149 19.2523 18.999 19.2523 19.0593H17.6428C17.6428 18.999 17.7666 18.2149 18.4475 18.2149Z" fill="#DCE5E5"/>
<path d="M26.3096 21.8947L26.5572 20.5678C26.5572 20.5678 25.9382 20.8693 25.5048 20.8693C24.6382 20.8693 24.2667 20.2059 24.2667 19.482C24.2667 18.0344 25.0096 17.2503 25.8763 17.2503C26.4953 17.2503 26.9905 17.6122 26.9905 17.6122L27.1763 16.3455C27.1763 16.3455 26.4334 16.0439 25.7525 16.0439C24.3286 16.0439 23.5239 17.2503 23.5239 19.5424C23.5239 21.0503 23.6477 22.0757 25.1334 22.0757C25.6286 22.0757 26.3096 21.8947 26.3096 21.8947Z" fill="#DCE5E5"/>
<path d="M7.3665 18.4564C7.3665 18.4564 7.92365 18.2151 8.72841 18.2151C9.16174 18.2151 9.53317 18.2754 9.53317 18.6373C9.53317 18.8786 9.47127 18.9389 9.47127 18.9389C9.47127 18.9389 9.09984 18.9389 8.91412 18.9389C7.86174 18.9389 6.68555 19.3611 6.68555 20.7484C6.68555 21.8341 7.42841 22.0754 7.86174 22.0754C8.72841 22.0754 9.09984 21.5325 9.16174 21.5325L9.09984 22.0151H10.2142L10.7094 18.6976C10.7094 17.3103 9.47127 17.25 8.97603 17.25L7.3665 18.4564ZM9.9046 19.8437C9.9046 20.0246 9.16174 20.9897 8.41888 20.9897C8.04746 20.9897 7.92365 20.6881 7.92365 20.5071C7.92365 20.2056 8.10936 19.7833 9.03793 19.7833C9.22365 19.8437 9.9046 19.8437 9.9046 19.8437Z" fill="#DCE5E5"/>
<path d="M10.5239 21.8947C10.5239 21.8947 10.8953 22.0154 11.9477 22.0154C12.2572 22.0154 13.8049 22.0757 13.8049 20.4471C13.8049 18.9392 12.3191 19.2408 12.3191 18.6376C12.3191 18.336 12.5668 18.2154 13.0001 18.2154C13.1858 18.2154 13.8668 18.2757 13.8668 18.2757L14.0525 17.19C14.0525 17.19 13.6191 17.0693 12.8763 17.0693C11.9477 17.0693 11.6382 17.4312 11.6382 18.6376C11.6382 20.0249 12.5668 19.9043 12.5668 20.4471C12.5668 20.809 12.1334 20.8693 11.8239 20.8693" fill="#DCE5E5"/>
<path d="M36.3383 17.7929C36.3383 17.7929 35.8431 17.1897 35.1622 17.1897C34.0479 17.1897 33.6764 18.5167 33.6764 20.0849C33.6764 21.05 33.5526 22.0754 34.605 22.0754C35.3479 22.0754 35.7812 21.5929 35.7812 21.5929L35.7193 22.0151H36.9574L37.886 16.2246L36.3383 17.7929ZM36.2764 19.3611C36.2764 20.0246 35.7193 20.8691 35.0383 20.8691C34.605 20.8691 34.3574 20.5072 34.3574 19.904C34.3574 18.9389 34.7907 18.3357 35.3479 18.3357C35.7812 18.3357 36.2764 18.6373 36.2764 19.3611Z" fill="#DCE5E5"/>
<path d="M2.29045 21.9545L3.03331 17.6117L3.15711 21.9545H4.02378L5.63331 17.6117L4.95235 21.9545H6.25235L7.24283 16.1641H5.69521L3.96188 19.7228L3.89997 16.1641H3.21902L1.11426 21.9545H2.29045Z" fill="#DCE5E5"/>
<path d="M20.1807 21.9548H21.4807C21.8521 19.9643 21.914 18.3357 22.7807 18.6373C22.9045 17.8532 23.0902 17.5516 23.214 17.25C23.214 17.25 23.1521 17.25 22.9664 17.25C22.4093 17.25 21.9759 17.9738 21.9759 17.9738L22.0998 17.3103" fill="#DCE5E5"/>
<path d="M27.4856 18.4564C27.4856 18.4564 28.0428 18.2151 28.8475 18.2151C29.2809 18.2151 29.6523 18.2754 29.6523 18.6373C29.6523 18.8786 29.5904 18.9389 29.5904 18.9389C29.5904 18.9389 29.219 18.9389 29.0333 18.9389C27.9809 18.9389 26.8047 19.3611 26.8047 20.7484C26.8047 21.8341 27.5475 22.0754 27.9809 22.0754C28.8475 22.0754 29.219 21.5325 29.2809 21.5325L29.219 22.0151H30.3333L30.8285 18.6976C30.8285 17.3103 29.5904 17.25 29.0952 17.25L27.4856 18.4564ZM30.0237 19.8437C30.0237 20.0246 29.2809 20.9897 28.538 20.9897C28.1666 20.9897 28.0428 20.6881 28.0428 20.5071C28.0428 20.2056 28.2285 19.7833 29.1571 19.7833C29.4047 19.8437 30.0237 19.8437 30.0237 19.8437Z" fill="#DCE5E5"/>
<path d="M30.5811 21.9548H31.8811C32.2526 19.9643 32.3145 18.3357 33.1811 18.6373C33.3049 17.8532 33.4907 17.5516 33.6145 17.25C33.6145 17.25 33.5526 17.25 33.3668 17.25C32.8097 17.25 32.3764 17.9738 32.3764 17.9738L32.5002 17.3103" fill="#DCE5E5"/>
</g>
</g>
<defs>
<clipPath id="clip0_75_1708">
<rect width="39" height="38" fill="white"/>
</clipPath>
</defs>
</svg>
