<svg width="51" height="70" viewBox="0 0 51 70" fill="none" xmlns="http://www.w3.org/2000/svg">
<path fill-rule="evenodd" clip-rule="evenodd" d="M25.5 70C25.5 70 51 39.6462 51 25.5405C51 11.4349 39.5833 0 25.5 0C11.4167 0 0 11.4349 0 25.5405C0 39.6462 25.5 70 25.5 70ZM25.9048 38.1081C33.5053 38.1081 39.6667 31.9369 39.6667 24.3243C39.6667 16.7118 33.5053 10.5405 25.9048 10.5405C18.3043 10.5405 12.1429 16.7118 12.1429 24.3243C12.1429 31.9369 18.3043 38.1081 25.9048 38.1081Z" fill="#004DC0"/>
<path d="M50 24.5C50 37.4787 39.031 48 25.5 48C11.969 48 1 37.4787 1 24.5C1 11.5213 11.969 1 25.5 1C39.031 1 50 11.5213 50 24.5Z" fill="white"/>
<path fill-rule="evenodd" clip-rule="evenodd" d="M8 35.4558L8.53716 35.2523C8.78427 35.3467 8.75606 35.6323 8.83069 35.7854C8.94562 35.7463 9.20877 35.7166 9.3237 35.6775C9.74735 35.8396 9.85302 36.1349 10.3957 36.1291C10.8375 36.132 11.1572 35.8749 11.5104 35.7551C11.5251 35.9327 11.4335 36.2355 11.5082 36.3885C11.4593 36.4944 11.3918 36.6403 11.4003 36.7267C11.7209 36.6773 12.3955 36.1766 12.7703 36.4444C12.8751 36.5319 12.9412 36.5987 13.081 36.6106C13.1865 36.8169 13.0196 37.3873 13.2811 37.5704L13.3636 37.6019C13.4458 37.6333 13.5581 37.5104 13.5744 37.475C13.8743 37.2459 14.4301 37.0021 14.8431 36.8577C15.1487 37.4843 15.426 38.0527 15.4523 38.7444C15.4632 38.8257 15.4445 38.8661 15.4694 38.917C15.3856 39.0984 15.2628 39.2589 15.113 39.3735C15.3111 39.5738 16.4228 38.7718 16.8318 38.8453C16.9201 38.8791 17.0129 38.873 17.06 38.8911C17.2128 39.2044 16.8917 39.6743 16.7588 39.9614L16.8168 40.0607C16.8934 40.0899 17.0942 40.0897 17.201 40.0831C17.348 40.3943 17.5598 40.4752 17.9363 40.6193C18.0335 40.8283 18.0402 41.0384 18.055 41.2159C18.2257 41.2812 18.4316 41.3599 18.6209 41.385C18.9006 41.409 19.3764 41.1286 19.6293 41.2253C19.5641 41.3663 19.3562 41.9211 19.5457 42.035L19.634 42.0688C19.7164 42.1003 20.1022 41.91 20.2171 41.871C20.2327 42.2563 20.3997 42.5692 20.4212 42.9567L20.2528 43.1709C15.0599 42.2282 10.4991 39.2746 8.00009 35.4559L8 35.4558ZM28.8476 42.836C28.8942 42.7352 29.105 42.5788 29.1492 42.4831C29.2866 42.186 29.3239 41.5067 29.2993 41.2601C29.6523 41.3951 30.0378 41.4299 30.3604 41.3162L30.5421 40.9233L32.2752 40.4242C32.5046 40.5121 32.8459 40.6426 33.1278 40.6318C32.9833 40.3452 32.7539 40.2576 32.6153 39.9733L32.7993 39.5754L33.6286 39.5488C33.7218 39.3474 33.6508 39.2016 33.5774 39.0609C33.7416 39.0051 34.0678 38.8988 34.2972 38.9865C34.4532 38.9335 34.664 38.7771 34.7548 38.5805C35.0309 38.5675 35.5131 38.4082 35.6714 38.3502C35.8088 38.053 35.9906 37.6601 36.2014 37.5037C35.9976 37.076 35.5795 36.7974 35.3674 36.3727C35.8263 36.5482 36.2911 36.7258 36.7965 36.8006C36.9782 36.4078 36.7686 35.9779 36.4029 35.6008L37.097 35.8663L37.2787 35.4735L37.9216 35.2511C38.0125 35.0547 37.9914 34.8154 38.038 34.7148L38.1754 34.4175L38.6517 34.2559L38.7449 34.0545C38.7891 33.9588 38.4875 33.1439 38.4223 33.0004L38.6039 32.6075C38.972 32.9795 38.5526 32.1196 38.485 31.9812C38.9253 31.9124 39.3842 32.0879 39.843 32.2634C39.9315 32.0721 39.7301 31.6394 39.6567 31.4986L39.8383 31.1057C39.956 31.1508 40.1143 31.0927 40.232 31.1378C40.3252 30.9363 40.1866 30.652 40.1155 30.5064L40.2972 30.1135L40.8642 30.0103C40.4518 35.7979 35.5856 41.2457 28.8474 42.8358L28.8476 42.836Z" fill="#00A0E3"/>
<path fill-rule="evenodd" clip-rule="evenodd" d="M14.7239 12.3451C15.866 14.6294 14.8508 16.5251 11.5513 17.2944C15.1046 18.6904 17.3889 22.2436 10.4092 25.0355C15.4853 25.1545 15.866 29.604 13.9625 35.1877C16.6274 31.6344 19.1655 29.8577 21.3229 35.4337C22.9726 27.8273 26.2721 30.4924 29.5637 38.1066C25.5027 28.4619 29.8254 27.6926 37.8124 31.3727C27.9218 25.4161 32.2365 21.0936 42.0002 21.6011C34.3939 20.8476 33.4977 16.525 39.716 9.8071C35.0204 13.7411 31.4751 9.17257 29.5637 6C28.4294 8.15731 24.2416 9.8071 20.3076 7.9036C20.5614 11.2031 18.1503 12.9797 14.7239 12.3451Z" fill="#393185" stroke="#393185" stroke-width="0.419125" stroke-miterlimit="22.9256" stroke-linecap="round" stroke-linejoin="round"/>
<path fill-rule="evenodd" clip-rule="evenodd" d="M27.4932 11.6626C33.2832 11.6626 38.0023 16.3818 38.0023 22.1719C38.0023 27.9619 33.2832 32.681 27.4932 32.681C21.7031 32.681 16.9839 27.9619 16.9839 22.1719C16.9839 16.3818 21.7031 11.6626 27.4932 11.6626Z" fill="#393185"/>
<path fill-rule="evenodd" clip-rule="evenodd" d="M27.2949 12.4322C26.0973 12.8367 23.6781 15.0496 25.8831 15.9458C26.3907 16.152 27.6994 16.3503 28.3022 16.3503C28.3974 16.2473 28.5958 16.152 28.6988 16.0569C28.6988 15.8507 28.8019 15.7554 28.8019 15.5492C28.096 15.2479 26.9935 16.0569 26.2877 15.3509C26.2877 13.9392 27.4932 13.6377 28.8019 13.4395C29.4999 13.3284 31.2132 13.6378 31.7128 14.1375C32.9183 15.248 32.617 16.2473 32.617 17.6669C31.8159 18.1587 30.7055 18.476 30.0075 19.166C30.2058 19.4675 30.5072 19.8798 30.8086 20.1813C32.1173 20.1813 33.1167 18.5632 33.8304 17.8573C33.8304 17.5639 33.6243 16.9531 33.6243 16.6518L33.9257 16.3503C34.1319 16.3503 34.5285 16.3503 34.6317 16.4534L34.7268 16.5485C35.2344 17.3576 34.6317 18.4759 34.6317 19.3721L34.9331 19.6736C35.8373 19.6736 36.9398 19.9749 36.9398 21.0853C36.7494 21.0853 36.6463 21.1805 36.5432 21.2836C35.4328 21.2836 34.3303 19.9749 33.2278 20.2764C32.1174 20.5778 31.9191 21.3789 30.7056 20.8791C30.0076 20.5778 28.802 19.5704 28.0962 20.2764C28.0962 20.5778 28.0011 20.784 28.0962 21.0854C29.2066 23.7028 33.0216 20.784 34.6317 21.3789C35.631 21.7834 36.9398 22.4894 36.9398 23.7028C36.7494 23.8932 36.7494 24.1945 36.6463 24.3929C35.9325 26.0029 32.9184 26.3995 32.2206 24.7974L32.0144 24.599C32.0144 23.1952 33.6245 22.7906 34.5287 23.7028C34.5287 23.798 34.4336 23.8932 34.4336 24.0042V24.1946H34.8381C34.8381 23.7981 35.0285 23.2984 35.0285 22.8939C34.1322 21.9897 31.4117 22.4894 31.0071 23.7981C30.912 24.2977 31.0071 24.7022 31.0071 25.2019C31.5147 25.7016 32.2207 26.2091 32.6172 26.6057C34.2273 26.6057 34.6319 27.9064 35.0285 28.8106C34.5288 29.8258 32.9186 30.9283 32.2207 29.2231C31.8162 28.2079 31.8162 27.4148 30.5075 27.1133C28.3977 26.6057 29.3018 29.0169 28.5961 29.7148C28.3025 29.7148 27.5967 29.921 27.3904 29.5244C26.9938 28.5092 27.8901 27.8112 27.8901 27.0102C28.9053 26.3994 29.0005 26.3042 30.206 26.3042L30.4044 26.098C30.4044 25.2969 29.8016 24.5989 29.8016 23.7027C29.9047 23.5996 30.1031 23.3934 30.1031 23.1951C29.5002 22.5923 28.5961 22.8937 27.8902 22.5923C27.097 22.2909 26.8987 21.4819 26.5894 20.8791C26.8988 20.2764 27.3905 19.5704 27.3905 18.8646L26.6926 18.1586H25.2887C24.6859 18.5631 23.0759 19.3721 23.3772 20.3794C23.7818 21.7832 24.9874 22.2908 24.9874 23.7979C24.6859 24.004 24.2814 24.4958 24.0753 24.702C23.4725 24.702 23.076 24.2975 22.6715 23.893V23.2981C22.7745 23.195 22.9728 22.8936 23.076 22.7905C23.2743 22.7905 23.5756 22.5921 23.6787 22.5921C23.6787 22.6952 23.877 22.8936 23.877 22.9967C23.877 22.8936 24.0754 22.6952 24.0754 22.5921C23.1712 21.688 21.6641 21.1804 20.9583 22.7905C19.951 25.2017 22.5763 28.0015 25.0906 26.9069L25.3921 26.6055H25.7886C25.9948 26.8117 26.098 27.0101 26.2883 27.1131C26.2883 27.5097 26.2883 28.1124 25.9948 28.4059V28.8104L25.6934 29.1198C24.8843 29.1198 24.583 27.9062 23.9802 27.605C23.5757 27.4146 22.9729 27.4146 22.4811 27.4146L22.0686 27.8111V28.6122C22.8777 29.4212 25.7885 29.9209 25.7885 31.3247C24.9875 32.1338 22.7746 30.6268 22.1718 30.016H21.1645C20.5617 29.9209 20.3554 29.0167 20.5617 28.509C20.6569 28.1124 21.2597 27.9062 21.3629 27.4145C21.3629 27.113 21.1645 26.8117 21.1645 26.5103C20.2683 26.0979 19.6497 26.0026 18.9516 25.2967V24.4956C19.0467 24.3926 19.2531 24.1943 19.2531 24.0039C19.5545 24.0039 19.8638 23.5994 20.0621 23.3933C20.0621 22.8936 19.951 22.4891 19.6497 22.1876C19.4593 22.1876 18.9516 22.1876 18.7455 22.0925L18.6503 21.9894C18.0475 20.9822 18.8486 20.3793 19.5545 20.078C19.7606 20.078 20.0621 20.2763 20.1651 20.3794V20.7839C19.951 20.879 19.6497 20.9822 19.5545 20.9822C19.6497 20.9822 19.951 21.1806 20.0621 21.2836C21.5612 21.2836 22.6716 20.9822 22.6716 19.2691C23.4726 18.4759 23.782 18.0714 24.7892 17.6668L25.0906 17.3575C25.0906 17.1592 24.9876 16.9529 24.9876 16.8578C24.3848 17.4606 24.0754 17.1593 23.3774 17.1593C23.1713 16.8578 22.8778 16.7547 22.6716 16.5485C22.6716 16.3502 22.7746 16.0569 22.7746 15.8506L22.5763 15.6443H21.9735C21.7674 15.8506 20.4587 17.0562 20.1651 17.1593H19.951L19.7606 16.953C19.7606 16.7547 19.8638 16.6517 19.8638 16.4534C20.0621 16.2473 20.3554 16.0569 20.4587 15.7554L20.5617 15.6443C22.6716 14.4467 24.6861 12.2339 27.2956 12.4322L27.2949 12.4322ZM24.741 12.3687C23.686 13.0747 21.9253 15.8348 24.281 16.1362C24.8282 16.1996 26.1448 16.0569 26.7159 15.9062C26.7873 15.7872 26.9538 15.6365 27.0252 15.5175C26.9698 15.3192 27.0491 15.2003 26.9935 15.002C26.24 14.883 25.3914 15.9537 24.5268 15.4541C24.1541 14.0899 25.2406 13.487 26.4463 12.9715C27.0967 12.678 28.8256 12.5274 29.4365 12.8921C30.8879 13.6456 30.8562 14.6926 31.229 16.0569C30.5786 16.7469 29.5872 17.3339 29.0954 18.1825C29.365 18.4285 29.7616 18.7377 30.1265 18.9519C31.3876 18.6108 31.9428 16.8025 32.4424 15.938C32.3631 15.6444 32.0142 15.1052 31.9428 14.8197L32.1569 14.4468C32.3552 14.3992 32.7359 14.2962 32.8628 14.3675L32.9739 14.4389C33.6718 15.0734 33.3784 16.3186 33.6164 17.1832L33.9812 17.3974C34.8616 17.1673 36.0038 17.1673 36.2893 18.2381C36.099 18.2935 36.0197 18.4125 35.9562 18.5315C34.8855 18.825 33.4736 17.8415 32.4982 18.4204C31.4989 18.9995 31.5146 19.8243 30.2059 19.6578C29.4603 19.5467 28.0407 18.8883 27.5489 19.745C27.6283 20.0305 27.5806 20.2605 27.7552 20.5222C29.4842 22.7748 32.4267 18.9597 34.132 19.1262C35.2027 19.2531 36.6542 19.5942 36.9635 20.768C36.8286 21.014 36.908 21.2995 36.8524 21.5215C36.5908 23.2506 33.7751 24.4244 32.6885 23.0523L32.4425 22.9094C32.0776 21.5532 33.5212 20.7442 34.6317 21.4024C34.6555 21.4898 34.5921 21.6087 34.6158 21.7118L34.6713 21.9022L35.0679 21.7911C34.9568 21.4025 35.0203 20.8711 34.9172 20.4825C33.8068 19.8479 31.3163 21.0297 31.2608 22.3939C31.3004 22.9015 31.4908 23.2664 31.6257 23.7502C32.2363 24.1071 33.0533 24.4164 33.545 24.694C35.0996 24.2815 35.8214 25.4316 36.44 26.201C36.218 27.3114 34.9489 28.7946 33.8305 27.3193C33.1802 26.4548 32.974 25.6854 31.6336 25.7251C29.4684 25.7886 30.9594 27.8825 30.4677 28.739C30.1741 28.8104 29.5555 29.1991 29.2541 28.858C28.6116 27.9776 29.2937 27.0734 29.0875 26.3041C29.8965 25.4634 29.968 25.3364 31.1339 25.0271L31.2766 24.7732C31.0704 24.0039 30.301 23.4805 30.071 22.6159C30.1424 22.489 30.2772 22.2352 30.2296 22.0449C29.4919 21.6244 28.6988 22.1479 27.9453 22.0368C27.0967 21.9497 26.6922 21.2199 26.24 20.7123C26.3829 20.054 26.6842 19.245 26.4939 18.5629L25.6452 18.0632L24.281 18.4282C23.8051 18.9753 22.4568 20.173 23.012 21.0614C23.7655 22.3145 25.0583 22.4891 25.4469 23.9484C25.2169 24.226 24.9394 24.805 24.8044 25.0588C24.2255 25.2095 23.7337 24.9319 23.2419 24.6464L23.0833 24.0673C23.1627 23.9404 23.2737 23.5994 23.3371 23.4725C23.5355 23.4249 23.7733 23.1553 23.8766 23.1235C23.9004 23.2186 24.1462 23.3615 24.17 23.4645C24.1462 23.3615 24.281 23.1156 24.2572 23.0204C23.1469 22.3859 21.5605 22.2828 21.2988 24.0197C20.9498 26.6054 24.2096 28.6358 26.359 26.9385L26.5653 26.5578L26.9538 26.4548C27.1998 26.5975 27.3504 26.772 27.5646 26.8117C27.6676 27.1924 27.8262 27.7793 27.6121 28.1442L27.7153 28.5329L27.5011 28.9056C26.7239 29.1197 26.113 28.0251 25.4707 27.8904C25.0186 27.811 24.4396 27.9697 23.9558 28.0966L23.6703 28.5804L23.8765 29.3497C24.8679 29.9287 27.8105 29.6591 28.1753 31.0233C27.6043 31.9909 25.082 31.1264 24.3445 30.6902L23.3688 30.9441C22.7582 31.0154 22.3219 30.1906 22.3933 29.6512C22.3853 29.2467 22.9089 28.8898 22.885 28.3822C22.8056 28.0807 22.536 27.8508 22.4645 27.5652C21.489 27.3907 20.8624 27.47 20.0138 26.9624L19.7996 26.1852C19.871 26.0662 20.0138 25.8204 19.9661 25.638C20.2517 25.5586 20.4421 25.0828 20.5848 24.829C20.4579 24.345 20.2517 23.9882 19.871 23.774C19.6886 23.8216 19.2048 23.9565 18.9748 23.9169L18.8638 23.8454C18.0151 23.0284 18.6417 22.2353 19.2365 21.7594C19.4348 21.704 19.7837 21.8229 19.9027 21.8944L20.0058 22.2909C19.8313 22.4416 19.5616 22.6161 19.4744 22.64C19.5615 22.6161 19.9106 22.7271 20.0375 22.7986C21.489 22.4099 22.4804 21.8309 22.0363 20.1732C22.6073 19.1976 22.8055 18.7296 23.6701 18.0793L23.8842 17.6986C23.8287 17.5162 23.6701 17.3338 23.6462 17.2466C23.2338 17.9841 22.8531 17.778 22.171 17.9604C21.8934 17.7145 21.592 17.6986 21.3303 17.5479C21.2828 17.3575 21.3064 17.0482 21.2589 16.8499L21.0051 16.6992L20.4181 16.8578C20.2832 17.1117 19.3315 18.6107 19.0698 18.7931L18.8714 18.8486L18.6255 18.69C18.578 18.5076 18.6493 18.3806 18.5938 18.1824C18.7367 17.9365 18.9746 17.6749 18.9983 17.3496L19.0618 17.2227C20.7909 15.5174 22.1709 12.8525 24.7407 12.3687L24.741 12.3687Z" fill="#00A0E3" stroke="#00A0E3" stroke-width="0.419125" stroke-miterlimit="22.9256" stroke-linecap="round" stroke-linejoin="round"/>
<path fill-rule="evenodd" clip-rule="evenodd" d="M35.9585 14.7656C36.7281 15.0704 37.2833 15.8786 37.4389 16.6175C37.8732 18.6877 35.9263 20.1055 36.4211 22.1132C36.7603 23.937 37.5621 25.7632 37.1601 27.7361C37.0714 28.0537 36.7215 28.0365 36.4815 27.8313C35.587 26.4417 34.9017 24.7843 34.0069 23.4269L33.3067 27.5201C33.134 28.0151 32.6283 28.0151 32.3495 27.7361C31.8202 26.4418 31.6495 24.6394 31.4312 23.4983C30.5258 24.9442 29.8471 26.5022 28.9178 27.8939C28.5397 28.0927 28.0838 27.8939 28.0492 27.4596C27.3771 25.145 28.8554 23.0532 28.7839 21.0393C28.7558 20.3715 28.345 19.8656 28.0492 19.0596C27.7552 18.2319 27.7444 16.3108 28.6997 15.349C29.9573 14.1197 31.3208 14.8218 32.8835 14.8931C33.3847 14.9278 33.7455 14.5151 34.8478 14.5494C35.9477 14.582 35.9585 14.7657 35.9585 14.7657V14.7656Z" fill="#00A0E3"/>
<path fill-rule="evenodd" clip-rule="evenodd" d="M36.421 15.8157C37.1601 16.7729 36.9159 18.1646 36.3261 19.1544C35.9867 19.7661 35.3706 19.9821 34.7808 20.1657C33.979 20.3449 33.7132 19.5929 32.7882 19.5606C31.8592 19.5218 31.2365 20.2671 30.5538 20.2671C29.8473 20.2003 29.134 19.8265 28.7947 19.1544C28.4837 18.2856 28.3886 16.991 28.8554 16.1829C29.8473 14.6486 31.293 15.3487 32.7107 15.5215C33.3782 15.606 33.7002 15.15 34.6297 15.137C35.5653 15.1217 35.9263 15.3487 36.4211 15.8157H36.421Z" fill="#FEFEFE"/>
<path fill-rule="evenodd" clip-rule="evenodd" d="M35.9325 20.3388C35.0357 22.6924 37.0389 24.6782 36.6996 27.0921L34.0391 22.1738C33.6115 21.59 32.9048 21.495 32.2544 21.59C31.3597 21.8087 31.1088 22.7916 30.6466 23.4421L28.6391 27.1529C28.4444 25.1344 29.4557 22.2796 29.523 21.6679C29.5618 21.3136 29.6008 21.0239 29.4406 20.6501C30.1474 20.9614 30.9922 21.1407 31.6646 20.6501C32.0664 20.3605 32.4443 20.2287 32.7556 20.2612C33.5057 20.3388 34.262 21.2854 35.0918 20.8447L35.9325 20.3388Z" fill="#FEFEFE"/>
<path fill-rule="evenodd" clip-rule="evenodd" d="M33.3847 22.6035C33.3675 23.8653 32.9329 25.5728 32.7776 27.1526L31.8828 22.7029C32.1982 22.0351 33.1947 22.1239 33.3848 22.6035H33.3847Z" fill="#FEFEFE"/>
<path fill-rule="evenodd" clip-rule="evenodd" d="M36.0862 11.5981L36.7008 13.342L40.0965 13.5098L37.166 15.3076L37.207 17.2393L35.9261 16.4942L33.7903 17.0236L34.6983 14.7099L33.5308 13.6146L35.1069 13.2146L36.0862 11.5981Z" fill="#FEFEFE"/>
<path d="M36.533 13.4333L35.9185 11.6895L36.2545 11.5074L36.8691 13.2512L36.6938 13.5695L36.533 13.4333ZM36.8691 13.2512C36.9096 13.3664 36.8672 13.5004 36.7744 13.5507C36.6817 13.601 36.5735 13.5485 36.533 13.4333L36.8691 13.2512ZM40.0895 13.7373L36.6938 13.5695L36.7084 13.115L40.1041 13.2828L40.1781 13.7138L40.0895 13.7372V13.7373ZM40.1041 13.2828C40.2053 13.2877 40.284 13.3935 40.2801 13.519C40.2761 13.6445 40.1906 13.7422 40.0895 13.7373L40.1041 13.2828ZM37.0851 15.1041L40.0155 13.3062L40.1782 13.7138L37.2477 15.5117L36.9831 15.3139L37.0851 15.1041H37.0851ZM37.2477 15.5117C37.1569 15.5674 37.0469 15.5212 37.002 15.4087C36.9572 15.2963 36.9943 15.1597 37.0851 15.1041L37.2477 15.5117ZM37.024 17.2456L36.9831 15.3139L37.3498 15.3019L37.3908 17.2337L37.1295 17.4456L37.024 17.2456ZM37.3908 17.2337C37.3934 17.3591 37.3135 17.4637 37.2122 17.467C37.111 17.4703 37.0266 17.3711 37.0241 17.2456L37.3909 17.2337H37.3908ZM36.0044 16.2886L37.2853 17.0338L37.1294 17.4456L35.8485 16.7004L35.8905 16.2714L36.0044 16.2885V16.2886ZM35.8485 16.7004C35.7569 16.6471 35.7175 16.5115 35.7604 16.3979C35.8033 16.2842 35.9127 16.2353 36.0044 16.2886L35.8485 16.7004ZM33.7547 16.8009L35.8905 16.2715L35.9624 16.7175L33.8266 17.247L33.6257 16.9244L33.7547 16.8008V16.8009ZM33.8266 17.247C33.7274 17.2715 33.6306 17.1916 33.6108 17.0685C33.591 16.9455 33.6555 16.8255 33.7547 16.8009L33.8266 17.247ZM34.8635 14.8097L33.9556 17.1234L33.6257 16.9244L34.5336 14.6106L34.8092 14.5288L34.8635 14.8097ZM34.5336 14.6106C34.5779 14.4978 34.6877 14.4508 34.7788 14.5057C34.8698 14.5606 34.9077 14.6968 34.8635 14.8097L34.5336 14.6106ZM33.6417 13.4335L34.8092 14.5288L34.5879 14.8915L33.4203 13.7962L33.4942 13.392L33.6416 13.4334L33.6417 13.4335ZM33.4203 13.7962C33.3397 13.7206 33.3237 13.5778 33.3848 13.4777C33.4458 13.3776 33.5609 13.3579 33.6416 13.4335L33.4202 13.7962H33.4203ZM35.1438 13.4377L33.5677 13.8377L33.4942 13.392L35.0703 12.9921L35.2536 13.3514L35.1438 13.4377ZM35.0703 12.9921C35.1695 12.967 35.2665 13.0463 35.2868 13.1693C35.3069 13.2923 35.243 13.4126 35.1438 13.4377L35.0703 12.9921ZM36.2331 11.7351L35.2537 13.3515L34.9605 13.0784L35.9399 11.4619L36.2545 11.5075L36.2331 11.7352V11.7351ZM35.9399 11.4619C36.0006 11.3616 36.1157 11.3412 36.1966 11.4166C36.2776 11.492 36.2939 11.6348 36.233 11.7351L35.9398 11.4619H35.9399Z" fill="#00A0E3"/>
</svg>
